<?xml version="1.0" encoding="utf-8"?>
<!-- Generator: Adobe Illustrator 24.3.0, SVG Export Plug-In . SVG Version: 6.00 Build 0)  -->
<svg version="1.1" id="Layer_1" xmlns="http://www.w3.org/2000/svg" xmlns:xlink="http://www.w3.org/1999/xlink" x="0px" y="0px"
   viewBox="0 0 280 153" style="enable-background:new 0 0 280 153;" xml:space="preserve">
<style type="text/css">
  .st0{fill:none;}
  .st1{fill:#062635;}
  .st2{fill:#CFE8F3;}
  .st3{fill:#0A4C6A;}
  .st4{fill:#1696D2;}
  .st5{fill:#73BFE2;}
</style>
<path class="st0" d="M143.18,139.63l60.41-185.92c-20.32-7.09-42.16-10.96-64.9-10.96c-19.74,0-38.8,2.92-56.78,8.32L143.18,139.63
  L143.18,139.63z"/>
<path class="st0" d="M143.18,139.63h192.39c0-42.3-13.35-81.49-36.05-113.58L143.18,139.63L143.18,139.63z"/>
<path class="st0" d="M299.52,26.05c-23.45-33.14-56.89-58.71-95.93-72.33l-60.41,185.92L299.52,26.05z"/>
<polygon class="st0" points="143.18,139.63 143.18,139.63 143.18,139.63 "/>
<polygon class="st0" points="143.18,139.63 143.18,139.63 143.18,139.63 "/>
<polygon class="st0" points="143.18,139.63 143.18,139.63 143.18,139.63 "/>
<polygon class="st0" points="143.18,139.63 143.18,139.63 143.18,139.63 "/>
<path class="st0" d="M143.18,139.63L81.92-48.92C41.12-36.66,5.9-11.52-19.03,21.78L143.18,139.63L143.18,139.63z"/>
<path class="st0" d="M-19.03,21.78c-24.59,32.86-39.16,73.65-39.16,117.85h201.37L-19.03,21.78z"/>
<path class="st1" d="M280,140c0-29.57-9.36-58.37-26.74-82.29l-15.86,11.52C252.35,89.8,260.4,114.57,260.4,140H280z"/>
<path class="st2" d="M26.74,57.71C9.36,81.63,0,110.43,0,140h19.6c0-25.43,8.05-50.2,22.99-70.77L26.74,57.71z"/>
<path class="st3" d="M253.26,57.71c-17.38-23.92-41.88-41.72-70-50.86l-6.06,18.64c24.18,7.86,45.26,23.17,60.2,43.74L253.26,57.71z
  "/>
<path class="st4" d="M183.26,6.85c-28.12-9.14-58.41-9.14-86.52,0l6.06,18.64c24.18-7.86,50.23-7.86,74.41,0L183.26,6.85z"/>
<path class="st5" d="M96.74,6.85c-28.12,9.14-52.62,26.94-70,50.86l15.86,11.52c14.94-20.57,36.02-35.88,60.2-43.74L96.74,6.85z"/>
</svg>
