<?xml version="1.0" encoding="utf-8"?>
  <!-- Generator: Adobe Illustrator 24.3.0, SVG Export Plug-In . SVG Version: 6.00 Build 0)  -->
  <svg version="1.1" id="Layer_1" xmlns="http://www.w3.org/2000/svg" xmlns:xlink="http://www.w3.org/1999/xlink" x="0px" y="0px"
     viewBox="0 0 280 137" style="enable-background:new 0 0 280 137;" xml:space="preserve">
  <style type="text/css">
    .st0{fill-rule:evenodd;clip-rule:evenodd;}
    .st1{fill:#CFE8F3;}
    .st2{fill:#73BFE2;}
    .st3{fill:#1696D2;}
    .st4{fill:#0A4C6A;}
    .st5{fill:#062635;}
    .st6{fill:#bada55;}
    .st7{fill:#92AA2E;}
  </style>
  <path class="st0" d="M-445.19,569.5c3.56,0,8-0.67,13.34-2c11.5-3.62,20.58-10.2,27.25-19.72c5.4-9.43,8.1-17.64,8.1-24.63v-4.67
    c0-12.04-5.4-23.54-16.2-34.49c-10.16-8.32-20.71-12.48-31.63-12.48h-2c-11.56,0-22.58,4.54-33.06,13.63
    c-10.07,10.7-15.1,22.5-15.1,35.4c0,12.07,4.45,23.19,13.34,33.35c10.48,10.42,22.38,15.63,35.68,15.63H-445.19z M-451.86,541.68
    c-4,0-8.73-1.25-14.2-3.76v-0.57h1.72c3.75,0,7.53-1.16,11.34-3.48v-0.86c-3.4,0-6.21-2.03-8.43-6.1v-0.57l1.48,0.29h1.43l0.57-0.29
    c-4.83-2.67-7.24-5.86-7.24-9.58v-0.29c1.37,0.76,2.72,1.14,4.05,1.14v-0.29c-2.45-2.48-3.8-4.7-4.05-6.67v-3.48
    c0.76-1.24,1.14-2.02,1.14-2.33h0.33l4.05,3.76c4.35,3.43,9.56,5.56,15.63,6.38c0.41,0,0.62-0.19,0.62-0.57v-2.33
    c0-1.56,0.29-2.81,0.86-3.76c1.97-3.65,4.57-5.48,7.81-5.48h2.33c1.75,0.19,3.68,1.16,5.81,2.91h0.86c0.6,0,2.33-0.68,5.19-2.05
    h0.29v0.29c-0.89,1.84-2.24,3.29-4.05,4.34l0.29,0.62c2-0.41,3.56-0.91,4.67-1.48v0.29c-0.03,0.35-1.59,2-4.67,4.95v2
    c0,5.3-2.13,10.91-6.38,16.82C-436.33,538.29-443.48,541.68-451.86,541.68z"/>
  <path class="st0" d="M-262.93,569.5c3.42,0,8.15-0.78,14.2-2.33c11.93-4.12,21.13-11.46,27.59-22.03
    c4.43-8.58,6.65-16.13,6.65-22.65v-4.04c0-0.95-0.28-3.18-0.85-6.69c-0.76-7.44-4.92-15.75-12.49-24.93
    c-10.76-10.22-22.16-15.34-34.19-15.34h-2.94c-3.42,0-7.47,0.66-12.16,1.99c-12.54,4.15-21.81,11.11-27.82,20.89
    c-3.8,5.82-6.31,13.45-7.55,22.89c0.19,0,0.28,0.11,0.28,0.33c-0.19,0.32-0.28,0.7-0.28,1.14v0.57c0,13.33,4.54,25.02,13.63,35.09
    c10.7,10.07,22.3,15.1,34.8,15.1H-262.93z M-260.89,550.37h-10.3l-0.14-1.76v-24.93c-0.28-0.6-0.57-0.9-0.85-0.9h-4.94v-10.11h4.94
    c0.57-0.32,0.85-0.62,0.85-0.9l-0.28-8.97c0.38-2.06,0.76-3.61,1.14-4.65c2.03-5,6.38-7.5,13.06-7.5h1.47
    c4.05,0,6.08,0.28,6.08,0.85v8.69h-5.79c-3.48,0.32-5.22,1.96-5.22,4.94v6.98c0,0.38,0.19,0.57,0.57,0.57h9.88v0.57
    c-0.6,6.36-1.09,9.54-1.47,9.54h-8.4c-0.32,0-0.51,0.21-0.57,0.62V550.37z"/>
  <path d="M-85.5,471.5c15.52,0,28.58,6.53,39.2,19.6c6.53,8.98,9.8,18.78,9.8,29.4v0.82c0,12.25-4.9,22.87-13.88,33.48
    c-10.62,9.8-21.23,14.7-32.67,14.7h-4.9c-13.07,0-24.5-5.72-35.12-17.15c-7.35-9.8-11.43-20.42-11.43-31.03v-2.45
    c0-5.72,1.63-13.07,5.72-21.23c2.45-4.9,6.53-9.8,13.07-15.52C-106.73,474.77-96.12,471.5-85.5,471.5z M-70.8,499.27l-10.62-2.45
    c-2.45,8.17-4.08,13.07-4.9,13.07c-5.72,0-11.43,1.63-17.15,4.9c-1.63-0.82-2.45-1.63-3.27-1.63h-1.63
    c-4.08,1.63-5.72,3.27-5.72,6.53v0.82c0,1.63,0.82,3.27,3.27,5.72v0.82c-0.82,9.8,6.53,15.52,21.23,17.97c0.82,0,1.63,0,4.08,0
    c12.25,0,21.23-4.08,25.32-13.07c0.82-3.27,0.82-5.72,1.63-6.53c1.63-1.63,2.45-3.27,2.45-5.72c0-3.27-1.63-4.9-4.9-6.53h-2.45
    c-0.82,0-1.63,0.82-4.08,1.63c-3.27-2.45-8.17-4.08-16.33-4.9c2.45-6.53,4.08-10.62,4.08-10.62c4.9,1.63,8.17,2.45,8.98,2.45
    c0.82,3.27,2.45,4.9,4.08,4.9h1.63c4.08,0,5.72-2.45,5.72-5.72c-0.82-3.27-2.45-4.9-4.9-4.9h-0.82
    C-66.72,496-68.35,497.63-70.8,499.27z M-107.55,515.6c1.63,0,2.45,0.82,2.45,0.82c-2.45,1.63-4.08,4.08-5.72,7.35l-1.63-2.45v-2.45
    C-110.82,516.42-110,515.6-107.55,515.6z M-94.48,520.5h1.63c1.63,0,3.27,1.63,4.08,4.08c-1.63,2.45-2.45,4.08-4.08,4.08h-1.63
    c-1.63,0-2.45-0.82-3.27-3.27v-0.82C-97.75,522.95-96.93,521.32-94.48,520.5z M-94.48,533.57c2.45,1.63,4.9,2.45,6.53,3.27h4.9
    c0.82,0,3.27-0.82,6.53-2.45c0,0,0,0,0.82,0.82v0.82c-0.82,0.82-3.27,2.45-7.35,3.27h-4.08c-2.45,0-5.72-0.82-8.17-3.27v-1.63
    C-95.3,534.38-94.48,534.38-94.48,533.57z M-76.52,520.5h1.63c2.45,0.82,3.27,2.45,3.27,4.08c0,1.63-0.82,3.27-3.27,4.08h-2.45
    c-2.45-0.82-3.27-1.63-3.27-3.27v-0.82C-79.78,522.13-78.97,520.5-76.52,520.5z M-64.27,497.63c1.63,0,2.45,0.82,3.27,3.27v0.82
    c0,1.63-0.82,2.45-3.27,3.27c-2.45,0-3.27-0.82-4.08-2.45v-1.63C-68.35,499.27-66.72,498.45-64.27,497.63z M-62.63,515.6
    c3.27,0.82,4.9,2.45,4.9,4.08v1.63c-0.82,1.63-1.63,2.45-1.63,2.45c-1.63-2.45-3.27-4.9-5.72-7.35
    C-65.08,515.6-64.27,515.6-62.63,515.6z"/>
  <path d="M107.14,471.9c8.1,0,17.82,4.05,28.35,11.34c11.34,10.53,17.01,23.49,17.01,37.26c0,16.2-7.29,29.97-21.06,40.5
    c-8.91,5.67-17.82,8.1-27.54,8.1c-17.82,0-31.59-8.1-42.12-24.3c-4.86-7.29-7.29-15.39-7.29-24.3c0-15.39,6.48-29.16,20.25-39.69
    c7.29-4.86,15.39-8.1,23.49-8.91H107.14L107.14,471.9z M76.37,506.73v31.59c0,1.62,1.62,3.24,3.24,3.24h47.78
    c1.62,0,3.24-1.62,3.24-3.24v-31.59c0-0.81-0.81-2.43-1.62-3.24H77.99C77.18,505.11,76.37,505.92,76.37,506.73z M79.61,506.73
    c2.43,1.62,8.1,5.67,17.82,14.58c1.62,1.62,4.05,3.24,5.67,4.86c8.1-6.48,15.39-12.96,21.87-18.63v0.81
    c-2.43,3.24-6.48,7.29-11.34,12.15l13.77,17.01v0.81l-16.2-16.2c0,0.81-2.43,3.24-7.29,8.1l-8.91-8.1
    c-5.67,5.67-10.53,10.53-16.2,16.2v-0.81l14.58-17.01C91.76,518.88,87.71,514.02,79.61,506.73z"/>
  <path class="st1" d="M25.54,63.5l10.01,7.26c0.47,0.34,0.58,0.98,0.26,1.46c-11.95,18.1-19.32,39.49-20.35,62.48
    c-0.03,0.58-0.49,1.03-1.07,1.03H2.01c-0.62,0-1.13-0.52-1.1-1.15c1.11-26.1,9.44-50.34,23.07-70.81
    C24.33,63.26,25.04,63.13,25.54,63.5z"/>
  <path class="st2" d="M92.75,11.01l3.81,11.72c0.18,0.55-0.11,1.13-0.64,1.33c-21.04,7.98-39.36,21.47-53.19,38.68
    c-0.36,0.45-1.01,0.54-1.47,0.2l-10.01-7.26c-0.51-0.37-0.6-1.09-0.22-1.57c15.62-19.59,36.41-34.9,60.29-43.8
    C91.9,10.1,92.56,10.42,92.75,11.01z"/>
  <path class="st3" d="M140,1.53c12.92,0,25.42,1.77,37.3,5.08c0.6,0.17,0.94,0.81,0.75,1.4l-3.83,11.74
    c-0.18,0.55-0.75,0.85-1.31,0.7c-10.48-2.89-21.53-4.41-32.91-4.41c-11.38,0-22.43,1.52-32.91,4.41c-0.56,0.15-1.13-0.15-1.31-0.7
    l-3.83-11.74c-0.19-0.59,0.15-1.23,0.75-1.4C114.57,3.31,127.08,1.53,140,1.53z"/>
  <path class="st4" d="M248.75,55.69l-10.01,7.26c-0.47,0.34-1.11,0.25-1.47-0.2c-13.83-17.22-32.15-30.71-53.19-38.68
    c-0.54-0.2-0.82-0.79-0.64-1.33l3.81-11.72c0.19-0.59,0.85-0.91,1.43-0.69c23.88,8.9,44.67,24.22,60.29,43.8
    C249.36,54.61,249.26,55.32,248.75,55.69z"/>
  <path class="st5" d="M277.98,136.56H265.6c-0.58,0-1.04-0.45-1.07-1.03c-1.04-22.99-8.4-44.38-20.35-62.48
    c-0.32-0.48-0.2-1.12,0.26-1.46l10.01-7.26c0.5-0.37,1.22-0.24,1.57,0.28c13.63,20.47,21.97,44.71,23.07,70.81
    C279.11,136.03,278.6,136.56,277.98,136.56z"/>
  <path class="st1" d="M25.54,237.75l10.01,7.26c0.47,0.34,0.58,0.98,0.26,1.46c-11.95,18.1-19.32,39.49-20.35,62.48
    c-0.03,0.58-0.49,1.03-1.07,1.03H2.01c-0.62,0-1.13-0.52-1.1-1.15c1.11-26.1,9.44-50.34,23.07-70.81
    C24.33,237.51,25.04,237.38,25.54,237.75z"/>
  <path class="st2" d="M92.75,185.26l3.81,11.72c0.18,0.55-0.11,1.13-0.64,1.33C74.88,206.3,56.56,219.78,42.72,237
    c-0.36,0.45-1.01,0.54-1.47,0.2l-10.01-7.26c-0.51-0.37-0.6-1.09-0.22-1.57c15.62-19.59,36.41-34.9,60.29-43.8
    C91.9,184.35,92.56,184.67,92.75,185.26z"/>
  <path class="st3" d="M140,175.78c12.92,0,25.42,1.77,37.3,5.08c0.6,0.17,0.94,0.81,0.75,1.4L174.21,194
    c-0.18,0.55-0.75,0.85-1.31,0.7c-10.48-2.89-21.53-4.41-32.91-4.41c-11.38,0-22.43,1.52-32.91,4.41c-0.56,0.15-1.13-0.15-1.31-0.7
    l-3.83-11.74c-0.19-0.59,0.15-1.23,0.75-1.4C114.57,177.56,127.08,175.78,140,175.78z"/>
  <path class="st4" d="M248.75,229.94l-10.01,7.26c-0.47,0.34-1.11,0.25-1.47-0.2c-13.83-17.22-32.15-30.71-53.19-38.68
    c-0.54-0.2-0.82-0.79-0.64-1.33l3.81-11.72c0.19-0.59,0.85-0.91,1.43-0.69c23.88,8.9,44.67,24.22,60.29,43.8
    C249.36,228.86,249.26,229.57,248.75,229.94z"/>
  <path class="st5" d="M277.98,310.81H265.6c-0.58,0-1.04-0.45-1.07-1.03c-1.04-22.99-8.4-44.38-20.35-62.48
    c-0.32-0.48-0.2-1.12,0.26-1.46l10.01-7.26c0.5-0.37,1.22-0.24,1.57,0.28c13.63,20.47,21.97,44.71,23.07,70.81
    C279.11,310.28,278.6,310.81,277.98,310.81z"/>
</svg>
